<?xml version="1.0" encoding="utf-8"?>
<!-- Generator: Adobe Illustrator 22.1.0, SVG Export Plug-In . SVG Version: 6.00 Build 0)  -->
<svg version="1.1" id="Calque_1" xmlns="http://www.w3.org/2000/svg" xmlns:xlink="http://www.w3.org/1999/xlink" x="0px" y="0px"
	 viewBox="0 0 469 134" style="enable-background:new 0 0 469 134;" xml:space="preserve">
<style type="text/css">
	.st0{fill:#111111;}
	.st1{fill:#FFC300;}
	.st2{fill:#7F7C7C;}
	.st3{enable-background:new    ;}
</style>
<g>
	<path class="st0" d="M69.4,88.7V72c0-3.7-2.9-6.6-6.6-6.6c-3.6,0-6.6,2.9-6.6,6.6v16.8h-8.5V38.5h8.5v21.1c2.1-2.1,4.4-2.9,6.6-2.9
		c4.1,0,7.9,1.6,10.8,4.4c2.8,3,4.4,6.8,4.4,10.9v16.8h-8.6V88.7z"/>
	<path class="st0" d="M88.2,84.6c-3.1-3.1-4.8-7.2-4.8-11.6c0-4.3,1.7-8.4,4.8-11.6c3.1-3.1,7.2-4.7,11.6-4.7c2.9,0,5.5,1,7.7,3.1
		l0.3,0.3v-2.7h8.3v31.3h-8.3v-2.5l-0.3,0.3c-2.5,2.4-5.3,2.7-7.7,2.7C95.4,89.3,91.3,87.7,88.2,84.6z M91.7,73.1
		c0,4.5,3.7,8.3,8.1,8.3s8.1-3.8,8.1-8.3c0-4.4-3.7-8.3-8.1-8.3C95.4,64.8,91.7,68.6,91.7,73.1z"/>
	<path class="st0" d="M152.5,61.5c3.1,3.1,4.8,7.2,4.8,11.6c0,4.3-1.7,8.4-4.8,11.6c-3.1,3.1-7.2,4.7-11.6,4.7c-2.9,0-5.5-1-7.7-3.1
		l-0.3-0.3v20.9h-8.3V57.4h8.3v2.5l0.3-0.3c2.5-2.4,5.3-2.7,7.7-2.7C145.2,56.8,149.3,58.4,152.5,61.5z M149,73.1
		c0-4.5-3.7-8.3-8.1-8.3s-8.1,3.8-8.1,8.3c0,4.4,3.7,8.3,8.1,8.3S149,77.5,149,73.1z"/>
	<path class="st0" d="M176.2,88.7c-3,0-5.8-1.2-7.9-3.2c-2.1-2.1-3.2-4.9-3.2-7.9v-13h-4.4v-7h4.4V45.3h8.1v12.3h9.1v7h-9.1v12.9
		c0,1.7,1.5,3.3,3,3.3h5.9l2.2,7.9C184.3,88.7,176.2,88.7,176.2,88.7z"/>
	<path class="st0" d="M190.2,48.4c0-1.4,0.5-2.7,1.6-3.7c1-1,2.3-1.6,3.8-1.6c2.9,0,5.3,2.4,5.3,5.3s-2.4,5.3-5.3,5.3
		C192.6,53.7,190.2,51.3,190.2,48.4z M191.1,88.7V57.4h8.9v31.3H191.1z"/>
	<path class="st0" d="M211.5,84.7L211.5,84.7c-3.1-3.1-4.8-7.2-4.8-11.6s1.7-8.5,4.7-11.6c3.1-3,7.2-4.7,11.6-4.7
		c4.5,0,8.6,1.6,11.6,4.7c0.7,0.7,1.2,1.3,1.7,1.9l0.8,1.2l-6.7,5l-1-1.3c-1.6-2.2-4-3.6-6.4-3.6c-4.3,0-8,3.8-8,8.3s3.7,8.3,8,8.3
		c2.4,0,4.8-1.4,6.4-3.7l0.9-1.2l7,5l-1,1.3c-0.1,0.2-0.3,0.4-0.5,0.6c-0.3,0.4-0.8,0.9-1.2,1.3c-3,3-7.1,4.7-11.6,4.7
		C218.7,89.4,214.6,87.7,211.5,84.7z"/>
	<path class="st1" d="M286.4,88.7V72c0-3.6-3.1-6.8-6.6-6.8c-3.7,0-6.7,3.1-6.7,6.8v16.8h-8.5V72c0-3.7-3-6.8-6.6-6.8
		s-6.6,3.2-6.6,6.8v16.8h-8.5V57.4h8.5v2.3c2.1-2.1,4.4-2.9,6.6-2.9c2,0,4,0.4,5.9,1.2c1.8,0.8,3.4,2,4.9,3.4c0,0.1,0.1,0.1,0.1,0.1
		c0.1-0.1,0.1-0.1,0.1-0.1c1.4-1.4,3.1-2.6,4.9-3.4c1.9-0.8,3.9-1.2,5.9-1.2c4,0,7.9,1.6,10.7,4.4c2.9,2.9,4.4,6.8,4.4,10.8v16.8
		h-8.5V88.7z"/>
	<path class="st1" d="M315.4,89.5c-2,0-4-0.5-5.9-1.4c-1.8-0.8-3.4-2-4.9-3.6c-2.4-2.6-3.8-6-4.2-9.6c-0.1-0.6-0.1-1.2-0.1-1.9
		c0-1.4,0.2-2.8,0.5-4.2c0.6-2.7,1.9-5.3,3.8-7.2c1.4-1.5,2.9-2.7,4.9-3.6c1.8-0.9,3.9-1.3,6-1.3c2.2,0,4.2,0.4,6,1.3
		c2.1,1,3.7,2.2,4.9,3.6c1.8,1.9,3.1,4.4,3.8,7.2c0.3,1.3,0.5,2.7,0.5,4.2c0,0.5,0,1.1,0,1.6h-23l0.1,0.5c0.9,4.2,4.1,7.3,7.7,7.3
		h0.1c2-0.1,4.2-1.4,5.5-2.5l0.8-0.6l5.7,4.9l-1,0.9c-0.8,0.7-1.7,1.5-2.7,2.1h-0.1C321.1,88.7,318.5,89.4,315.4,89.5L315.4,89.5z
		 M308.7,68.6l-0.3,0.5h14.2l-0.3-0.5c-1.6-2.9-4.2-4.7-6.8-4.7S310.1,65.7,308.7,68.6z"/>
	<path class="st1" d="M339.3,84.6c-3.1-3.1-4.8-7.2-4.8-11.6c0-4.3,1.7-8.4,4.8-11.6c3.1-3.1,7.2-4.7,11.6-4.7c2.9,0,5.5,1,7.7,3.1
		l0.3,0.3V38.5h8.3v50.2h-8.3v-2.5l-0.3,0.3c-2.5,2.4-5.3,2.7-7.7,2.7C346.5,89.3,342.4,87.7,339.3,84.6z M342.8,73.1
		c0,4.5,3.7,8.3,8.1,8.3s8.1-3.8,8.1-8.3c0-4.4-3.7-8.3-8.1-8.3C346.4,64.8,342.8,68.6,342.8,73.1z"/>
	<path class="st1" d="M377.3,48.4c0-1.4,0.5-2.7,1.6-3.7c1-1,2.3-1.6,3.8-1.6c2.9,0,5.3,2.4,5.3,5.3s-2.4,5.3-5.3,5.3
		C379.7,53.7,377.3,51.3,377.3,48.4z M378.2,88.7V57.4h8.9v31.3H378.2z"/>
	<path class="st1" d="M399.4,84.6c-3.1-3.1-4.8-7.2-4.8-11.6c0-4.3,1.7-8.4,4.8-11.6c3.1-3.1,7.2-4.7,11.6-4.7c2.9,0,5.5,1,7.7,3.1
		l0.3,0.3v-2.7h8.3v31.3H419v-2.5l-0.3,0.3c-2.5,2.4-5.3,2.7-7.7,2.7C406.6,89.3,402.5,87.7,399.4,84.6z M402.9,73.1
		c0,4.5,3.7,8.3,8.1,8.3s8.1-3.8,8.1-8.3c0-4.4-3.7-8.3-8.1-8.3C406.5,64.8,402.9,68.6,402.9,73.1z"/>
</g>
<g>
	<path class="st2" d="M304,110.9v-5.2h-1.6v-1.9h1.6v-4.1h2v4.1h3.3v1.9H306v5.1c0,0.9,0.7,1.7,1.6,1.7h1.8l0.5,1.9h-2.3
		C305.6,114.5,304,112.9,304,110.9z"/>
	<path class="st2" d="M321.7,109.2c0,1.5-0.6,2.9-1.6,3.9s-2.4,1.6-3.9,1.6s-2.9-0.6-3.9-1.6c-1-1.1-1.6-2.4-1.6-3.9
		s0.6-2.9,1.6-3.9c1.1-1,2.4-1.6,3.9-1.6s2.9,0.6,3.9,1.6C321.1,106.3,321.7,107.7,321.7,109.2z M319.7,109.2c0-2-1.6-3.5-3.6-3.5
		s-3.6,1.6-3.6,3.5s1.6,3.6,3.6,3.6C318.1,112.7,319.7,111.1,319.7,109.2z"/>
	<path class="st2" d="M323.9,109.9v-6h2v6c0,1.5,1.3,2.8,2.9,2.8s2.9-1.3,2.9-2.8v-6h2v6c0,1.3-0.5,2.5-1.5,3.4
		c-0.9,0.9-2.1,1.4-3.4,1.4s-2.5-0.5-3.5-1.4C324.4,112.4,323.9,111.2,323.9,109.9z"/>
	<path class="st2" d="M345.8,112.4c-0.2,0.2-0.4,0.5-0.6,0.7c-1,1-2.4,1.6-3.9,1.6s-2.9-0.6-3.9-1.6c-1-1.1-1.6-2.4-1.6-3.9
		s0.6-2.9,1.6-3.9s2.4-1.6,3.9-1.6s2.9,0.6,3.9,1.6c0.2,0.2,0.4,0.4,0.6,0.6l-1.6,1.2c-0.6-0.9-1.7-1.5-2.9-1.5
		c-2,0-3.6,1.6-3.6,3.6s1.6,3.6,3.6,3.6c1.2,0,2.2-0.6,2.9-1.5L345.8,112.4z"/>
	<path class="st2" d="M357.8,108.8v5.7h-2v-5.7c0-1.7-1.4-3.2-3.1-3.2s-3.1,1.4-3.1,3.2v5.7h-2v-17h2v7.4c0.9-0.7,2-1.2,3.1-1.2
		c1.4,0,2.7,0.5,3.6,1.5C357.2,106.1,357.8,107.4,357.8,108.8z"/>
	<path class="st2" d="M367.6,105c0.7-0.7,2.6-1.3,3.9-1.3l-0.5,2c-1.8,0-3.4,1.4-3.4,3.2v5.6h-2v-10.6h2V105z"/>
	<path class="st2" d="M382.1,109.7H374l0,0c0.2,1.8,1.5,3.1,3.1,3.1c0.9,0,1.9-0.4,2.6-1.1l1.7,1c-0.4,0.5-0.9,0.9-1.4,1.2
		c-0.8,0.5-1.8,0.7-2.8,0.8c-1.4,0-2.7-0.6-3.6-1.6c-0.8-0.9-1.3-2.1-1.4-3.3c0-0.2,0-0.3,0-0.5c0-0.4,0-0.8,0.1-1.2
		c0.2-1,0.7-1.8,1.3-2.6c0.9-1,2.2-1.6,3.6-1.6s2.7,0.6,3.6,1.6c0.6,0.7,1.1,1.6,1.3,2.6C382.2,108.9,382.1,109.4,382.1,109.7z
		 M380,108L380,108c-0.5-1.4-1.7-2.3-3-2.3s-2.4,0.9-2.9,2.3l0,0H380z"/>
	<path class="st2" d="M392.7,103.9h2v10.6h-2v-1.2c-1,0.8-2.2,1.5-3.6,1.5c-1.5,0-2.9-0.6-3.9-1.6c-1-1.1-1.6-2.4-1.6-3.9
		s0.6-2.9,1.6-3.9c1.1-1,2.4-1.6,3.9-1.6c1.3,0,2.6,0.6,3.6,1.5V103.9z M392.7,109.2c0-2-1.6-3.6-3.6-3.6s-3.6,1.6-3.6,3.6
		s1.6,3.6,3.6,3.6S392.7,111.1,392.7,109.2z"/>
	<path class="st2" d="M397.6,114.5v-17h2v16.9L397.6,114.5L397.6,114.5z"/>
	<path class="st2" d="M402.8,100.9c0-0.7,0.6-1.3,1.3-1.3c0.7,0,1.3,0.6,1.3,1.3c0,0.7-0.6,1.3-1.3,1.3
		C403.4,102.2,402.8,101.6,402.8,100.9z M403.1,103.9h2v10.6h-2V103.9z"/>
	<path class="st2" d="M409.3,110.9v-5.2h-1.6v-1.9h1.6v-4.1h2v4.1h3.3v1.9h-3.3v5.1c0,0.9,0.7,1.7,1.6,1.7h1.8l0.5,1.9h-2.3
		C410.9,114.5,409.3,112.9,409.3,110.9z"/>
	<path class="st2" d="M420,120.5h-2.1l2.5-6l-4.3-10.6h2.1l3.2,7.9l3.2-7.9h2.1L420,120.5z"/>
</g>
<g class="st3">
	<path class="st2" d="M55.7,26.1c0,0.6-0.2,1.2-0.5,1.7c-0.3,0.5-0.8,0.9-1.4,1.1c-0.6,0.3-1.2,0.4-1.9,0.4c-0.4,0-0.7,0-1.1-0.1
		c-1.1-0.2-2.2-0.7-3.2-1.5l1.2-1.4c1.2,1,2.3,1.2,2.9,1.2c0.4,0,0.9-0.1,1.2-0.3c0.3-0.1,0.8-0.5,0.8-1.2s-0.6-1.1-2-1.4
		c-0.1,0-1.8-0.3-2.5-0.7c-1-0.6-1.5-1.4-1.5-2.5c0-0.6,0.2-1.1,0.5-1.6c0.3-0.4,0.7-0.7,1.3-1c0.6-0.3,1.1-0.4,1.8-0.4
		c0.3,0,0.5,0,0.8,0c1,0.2,2,0.6,2.8,1.3L54,21.2c-1-0.8-1.9-0.9-2.4-0.9c-0.4,0-0.8,0.1-1.1,0.2c-0.5,0.2-0.8,0.6-0.8,1.1
		c0,0.7,0.6,1.1,2,1.4c0,0,1.9,0.4,2.4,0.7c0.6,0.3,0.9,0.6,1.1,0.9C55.6,25,55.7,25.5,55.7,26.1z"/>
	<path class="st2" d="M57.9,24.7v-6h2v6c0,1.5,1.3,2.8,2.9,2.8c1.6,0,2.9-1.3,2.9-2.8v-6h2v6c0,1.3-0.5,2.5-1.4,3.4
		c-0.9,0.9-2.1,1.4-3.4,1.4c-1.3,0-2.5-0.5-3.4-1.4C58.4,27.2,57.9,26,57.9,24.7z"/>
	<path class="st2" d="M81.1,23.9c0,1.5-0.6,2.9-1.6,3.9c-1,1-2.4,1.6-3.9,1.6c-1.3,0-2.6-0.6-3.5-1.4v7.2h-2V18.7h2v1.2
		c1-0.8,2.2-1.4,3.5-1.4c1.5,0,2.9,0.6,3.9,1.6C80.5,21.1,81.1,22.5,81.1,23.9z M79.1,23.9c0-2-1.6-3.6-3.5-3.6S72,22,72,23.9
		c0,2,1.6,3.6,3.5,3.6S79.1,25.9,79.1,23.9z"/>
	<path class="st2" d="M93.9,23.9c0,1.5-0.6,2.9-1.6,3.9c-1,1-2.4,1.6-3.9,1.6c-1.3,0-2.6-0.6-3.5-1.4v7.2h-2V18.7h2v1.2
		c1-0.8,2.2-1.4,3.5-1.4c1.5,0,2.9,0.6,3.9,1.6C93.4,21.1,93.9,22.5,93.9,23.9z M92,23.9c0-2-1.6-3.6-3.5-3.6s-3.5,1.6-3.5,3.6
		c0,2,1.6,3.6,3.5,3.6S92,25.9,92,23.9z"/>
	<path class="st2" d="M106.5,23.9c0,1.5-0.6,2.9-1.6,3.9c-1,1-2.4,1.6-3.9,1.6s-2.9-0.6-3.9-1.6c-1-1.1-1.6-2.4-1.6-3.9
		S96,21.1,97,20c1.1-1,2.4-1.6,3.9-1.6s2.9,0.6,3.9,1.6C105.9,21.1,106.5,22.5,106.5,23.9z M104.5,23.9c0-2-1.6-3.5-3.5-3.5
		s-3.5,1.6-3.5,3.5c0,2,1.6,3.5,3.5,3.5S104.5,25.9,104.5,23.9z"/>
	<path class="st2" d="M110.5,19.8c0.7-0.7,2.6-1.3,3.8-1.3l-0.5,2c-1.8,0-3.4,1.4-3.4,3.2v5.6h-2V18.7h2V19.8z"/>
	<path class="st2" d="M117.2,25.7v-5.2h-1.6v-1.9h1.6v-4.1h2v4.1h3.2v1.9h-3.2v5.1c0,0.9,0.7,1.7,1.6,1.7h1.8l0.5,1.9h-2.3
		C118.7,29.2,117.2,27.7,117.2,25.7z"/>
	<path class="st2" d="M133.8,24.4h-8.1v0c0.2,1.7,1.5,3.1,3.1,3.1c0.9,0,1.9-0.4,2.6-1.1l1.7,1c-0.4,0.5-0.9,0.9-1.4,1.2
		c-0.8,0.5-1.8,0.7-2.8,0.8c-1.4,0-2.6-0.6-3.6-1.6c-0.8-0.9-1.3-2-1.4-3.3c0-0.2,0-0.3,0-0.5c0-0.4,0-0.8,0.1-1.2
		c0.2-1,0.7-1.8,1.3-2.6c0.9-1,2.2-1.6,3.6-1.6c1.4,0,2.6,0.6,3.6,1.6c0.6,0.7,1.1,1.6,1.3,2.6C133.8,23.7,133.8,24.2,133.8,24.4z
		 M131.7,22.8L131.7,22.8c-0.5-1.4-1.7-2.3-2.9-2.3c-1.3,0-2.4,0.9-2.9,2.3l0,0H131.7z"/>
	<path class="st2" d="M144.3,12.3h2v16.9h-2V28c-1,0.8-2.2,1.4-3.5,1.4c-1.5,0-2.9-0.6-3.9-1.6c-1-1.1-1.6-2.4-1.6-3.9
		s0.6-2.9,1.6-3.9c1.1-1,2.4-1.6,3.9-1.6c1.3,0,2.6,0.6,3.5,1.4V12.3z M144.3,23.9c0-2-1.6-3.6-3.5-3.6c-2,0-3.5,1.6-3.5,3.6
		c0,2,1.6,3.6,3.5,3.6C142.7,27.5,144.3,25.9,144.3,23.9z"/>
	<path class="st2" d="M165.3,23.9c0,1.5-0.6,2.9-1.6,3.9c-1,1-2.4,1.6-3.9,1.6c-1.3,0-2.6-0.6-3.5-1.4v1.2h-2V12.3h2v7.6
		c1-0.8,2.2-1.4,3.5-1.4c1.5,0,2.9,0.6,3.9,1.6C164.7,21.1,165.3,22.5,165.3,23.9z M163.3,23.9c0-2-1.6-3.6-3.5-3.6
		s-3.5,1.6-3.5,3.6c0,2,1.6,3.6,3.5,3.6S163.3,25.9,163.3,23.9z"/>
	<path class="st2" d="M170.5,35.2h-2.1l2.5-6l-4.3-10.5h2.1l3.2,7.9l3.2-7.9h2.1L170.5,35.2z"/>
</g>
</svg>
